<?xml version="1.0" encoding="utf-8"?>
<!-- Generator: Adobe Illustrator 22.1.0, SVG Export Plug-In . SVG Version: 6.00 Build 0)  -->
<svg version="1.1" id="图层_1" xmlns="http://www.w3.org/2000/svg" xmlns:xlink="http://www.w3.org/1999/xlink" x="0px" y="0px"
	 viewBox="0 0 1000 1000" style="enable-background:new 0 0 1000 1000;" xml:space="preserve">
<style type="text/css">
	.st0{fill:#231815;}
	.st1{fill:#040000;}
</style>
<g>
	<polygon class="st0" points="122.8,423.6 122.8,457.7 101.1,457.7 101.1,581.8 82.1,581.8 82.1,457.7 60.6,457.7 60.6,423.6 	"/>
	<polygon class="st0" points="195,423.6 195,456.6 156.7,456.6 156.7,486.1 191.2,486.1 191.2,518.9 156.7,519.1 156.7,548.9 
		196,548.9 196,581.8 137.7,581.8 137.7,423.6 	"/>
	<path class="st0" d="M260,517.2c1.1-0.4,2.7-1.1,4.4-2.4c5.4-4,11.9-11.9,11.9-35.5c0-27.6-0.8-43.5-13-51.4
		c-3.9-2.5-11.1-4.3-20.6-4.3c0,0-32.6,0-32.6,0v158.2h18.9v-61.9h11.3h0.4l13,61.9h21.4L260,517.2z M254.6,480
		c-0.3,3-1,6.5-3.5,8.3c-2.4,1.6-5.6,1.3-8.3,1.3c0,0-13.8,0-13.8,0v-33h13.8c2.9,0,6.1,0.1,8.4,2.2c2.2,2.1,3,5.4,3.4,8.4
		C255.2,471.4,255.1,475.7,254.6,480z"/>
	<path class="st0" d="M343.4,517.2c1.1-0.4,2.7-1.1,4.4-2.4c5.4-4,11.9-11.9,11.9-35.5c0-27.6-0.8-43.5-13-51.4
		c-3.9-2.5-11.1-4.3-20.6-4.3c0,0-32.6,0-32.6,0v158.2h18.9v-61.9h11.3h0.4l13,61.9h21.4L343.4,517.2z M338,480
		c-0.3,3-1,6.5-3.5,8.3c-2.4,1.6-5.6,1.3-8.3,1.3c0,0-13.8,0-13.8,0v-33h13.8c2.9,0,6.1,0.1,8.4,2.2c2.2,2.1,3,5.4,3.4,8.4
		C338.5,471.4,338.4,475.7,338,480z"/>
	<path class="st0" d="M922.8,517.2c1.1-0.4,2.7-1.1,4.4-2.4c5.4-4,11.9-11.9,11.9-35.5c0-27.6-0.8-43.5-13-51.4
		c-3.9-2.5-11.1-4.3-20.6-4.3h-35.2v158.2h18.9v-61.9h13.8h0.4l13,61.9h21.4L922.8,517.2z M917.4,480c-0.3,3-1,6.5-3.5,8.3
		c-2.4,1.6-5.6,1.3-8.3,1.3c0,0-16.4,0-16.4,0v-33h16.4c2.9,0,6.1,0.1,8.4,2.2c2.2,2.1,3,5.4,3.4,8.4
		C918,471.4,917.9,475.7,917.4,480z"/>
	<polygon class="st0" points="482.7,423.6 502,505.6 521.3,423.6 544.6,423.6 544.6,581.8 525.2,581.8 525.1,481.6 508.2,566 
		495.8,566 478.9,481.6 478.9,581.8 459.5,581.8 459.5,423.6 	"/>
	<path class="st0" d="M607.1,423.6h-24.6l-28.6,158.2h19.5l5.1-28h31.4l5,28H635L607.1,423.6z M584.1,522.2l10.1-56.4l9.9,56.4
		H584.1z"/>
	<path class="st0" d="M422.2,423.6h-24.6L369,581.8h19.5l5.1-28h31.4l5,28h20.2L422.2,423.6z M399.3,522.2l10.1-56.4l9.9,56.4H399.3
		z"/>
	<path class="st0" d="M673.7,454.1c-4.6,0-10.1,3.6-10.1,10.8c0,26.2,43.4,11.3,43.4,68.1c0,32.3-15.6,48.7-31.8,48.7
		c-12.1,0-24.7-9.7-33.4-25.3l7.4-32.3c7.5,14,18.7,23.9,26.3,23.9c5.6,0,11.7-4.5,11.7-12.9c0-26.8-43.4-10.6-43.4-66.6
		c0-29.6,14.1-48.3,31.6-48.3c10.7,0,21.4,7.2,29,17.8l-7.1,32.7C689.5,461.6,679.7,454.1,673.7,454.1z"/>
	<polygon class="st0" points="780.6,423.6 780.6,457.7 756.2,457.7 756.2,581.8 737.3,581.8 737.3,457.7 713.2,457.7 713.2,423.6 	
		"/>
	<polygon class="st0" points="855.4,423.6 855.4,456.6 814.5,456.6 814.5,486.1 851.6,486.1 851.6,518.9 814.5,519.1 814.5,548.9 
		856.4,548.9 856.4,581.8 795.5,581.8 795.5,423.6 	"/>
</g>
<g>
	<path class="st1" d="M499.9,738.9c-15.2,0-30.5-1.6-45.6-4.9l-0.4-0.1L64.3,629.7c-25.3-5.5-43.6-30-43.6-58.4V427.7
		c0-28.5,18.5-53.1,44-58.5L456,267.9c29.1-6,58.6-6,87.7,0l0.4,0.1L935,369.2c25.5,5.4,44,29.9,44,58.5v143.6
		c0,28.3-18.3,52.8-43.6,58.4L545.5,734.1C530.3,737.3,515.1,738.9,499.9,738.9z M457.7,718.9c28,6,56.3,6,84.3,0l389.9-104.4
		c18.3-3.9,31.5-22.1,31.5-43.2V427.7c0-21.3-13.4-39.5-31.8-43.3l-0.4-0.1L540.4,283c-26.9-5.5-54.2-5.5-81.1,0L68.1,384.4
		c-18.4,3.8-31.8,22-31.8,43.3v143.6c0,21.1,13.3,39.3,31.5,43.2l0.4,0.1L457.7,718.9z"/>
</g>
</svg>
